# xmcd
#
# Track frame offsets: 
#        150
#        15663
#        32238
#        42816
#        102423
#        139596
#        161636
#        188883
#        208527
#
# Disc length: 3153 seconds
#
# Revision: 2
# Processed by: cddbd v1.5.2PL0 Copyright (c) Steve Scherf et al.
# Submitted via: ExactAudioCopy v1.0b4
#
DISCID=740c4f09
DTITLE=Kris Lager Band - Live At The Bourbon Theatre
DYEAR=2013
DGENRE=Blues
TTITLE0=GS Groove
TTITLE1=It Don't Take Long
TTITLE2=I Need It Now
TTITLE3=Sunshine On The Bayouu
TTITLE4=Sugarcane
TTITLE5=I'm In The Mood
TTITLE6=Hold On Tight
TTITLE7=What You Got
TTITLE8=Shake For Me
EXTD=
EXTT0=
EXTT1=
EXTT2=
EXTT3=
EXTT4=
EXTT5=
EXTT6=
EXTT7=
EXTT8=
PLAYORDER=
